<svg xmlns="http://www.w3.org/2000/svg" version="1.1" xmlns:xlink="http://www.w3.org/1999/xlink" xmlns:svgjs="http://svgjs.dev/svgjs" width="1000" height="1000" viewBox="0 0 1000 1000"><g transform="matrix(1,0,0,1,-0.14221556886212738,-0.14221556886229791)"><svg viewBox="0 0 334 334" data-background-color="#ffffff" preserveAspectRatio="xMidYMid meet" height="1000" width="1000" xmlns="http://www.w3.org/2000/svg" xmlns:xlink="http://www.w3.org/1999/xlink"><g id="tight-bounds" transform="matrix(1,0,0,1,0.04749999999998522,0.04750000000001364)"><svg viewBox="0 0 333.90454557049503 333.90454557049503" height="333.90454557049503" width="333.90454557049503"><g><svg></svg></g><g><svg viewBox="0 0 333.90454557049503 333.90454557049503" height="333.90454557049503" width="333.90454557049503"><g><path d="M0 166.952c0-92.205 74.747-166.952 166.952-166.952 92.205 0 166.952 74.747 166.953 166.952 0 92.205-74.747 166.952-166.953 166.953-92.205 0-166.952-74.747-166.952-166.953zM166.952 316.63c82.665 0 149.677-67.013 149.678-149.678 0-82.665-67.013-149.677-149.678-149.677-82.665 0-149.677 67.013-149.677 149.677 0 82.665 67.013 149.677 149.677 149.678z" data-fill-palette-color="tertiary" fill="#5e1914" stroke="transparent"></path><ellipse rx="160.27418187383762" ry="160.27418187383762" cx="166.95227278524752" cy="166.95227278524752" fill="#5e1914" stroke="transparent" stroke-width="0" fill-opacity="1" data-fill-palette-color="tertiary"></ellipse></g><g transform="matrix(1,0,0,1,72.83877774755729,71.17305217166896)"><svg viewBox="0 0 188.22699007538046 191.55844122715712" height="191.55844122715712" width="188.22699007538046"><g><svg viewBox="0 0 188.22699007538046 191.55844122715712" height="191.55844122715712" width="188.22699007538046"><g><svg viewBox="0 0 188.22699007538046 191.55844122715712" height="191.55844122715712" width="188.22699007538046"><g><svg viewBox="0 0 188.22699007538046 191.55844122715712" height="191.55844122715712" width="188.22699007538046"><g id="textblocktransform"><svg viewBox="0 0 188.22699007538046 191.55844122715712" height="191.55844122715712" width="188.22699007538046" id="textblock"><g><svg viewBox="0 0 188.22699007538046 191.55844122715712" height="191.55844122715712" width="188.22699007538046"><g transform="matrix(1,0,0,1,0,0)"><svg width="188.22699007538046" viewBox="0.9000000357627869 -33.400001525878906 33.89999771118164 34.5" height="191.55844122715712" data-palette-color="#ffffff"><path d="M24.25-14.6Q14.4-13.4 10.3-12.5L10.3-12.5 7.6-1.8Q7.25-0.35 6.58 0.15 5.9 0.65 3.9 0.65L3.9 0.65Q2.35 0.65 1.63 0.13 0.9-0.4 0.9-1.65L0.9-1.65Q0.9-2.2 1.05-2.7L1.05-2.7 7.9-29.75Q8.45-31.95 9.08-32.68 9.7-33.4 11.35-33.4L11.35-33.4Q12.7-33.4 13.83-33.1 14.95-32.8 15-32.2L15-32.2Q15-32.1 14.35-29.5L14.35-29.5Q13.35-25.65 11.5-17.8L11.5-17.8Q18.9-19.3 25.55-19.85L25.55-19.85 27.85-29.15Q28.35-31.15 29.23-32.13 30.1-33.1 31.6-33.4L31.6-33.4Q33.45-33.05 34.02-32.83 34.6-32.6 34.8-32.15L34.8-32.15Q34.15-30.3 33.83-28.73 33.5-27.15 33.45-26.85L33.45-26.85Q32.8-23.35 31.9-19.7L31.9-19.7Q33.85-18.85 33.85-17.4L33.85-17.4Q33.85-15.95 30.75-14.95L30.75-14.95Q30.2-12.95 28.7-6.25L28.7-6.25Q28.35-4.4 27.7-1.65L27.7-1.65Q27 1.1 25.5 1.1L25.5 1.1Q20.9 1.1 20.9-1.05L20.9-1.05Q20.9-1.5 24.25-14.6L24.25-14.6Z" opacity="1" transform="matrix(1,0,0,1,0,0)" fill="#ffffff" class="undefined-text-0" data-fill-palette-color="quaternary" id="text-0"></path></svg></g></svg></g></svg></g></svg></g><g></g></svg></g></svg></g></svg></g></svg></g><defs></defs></svg><rect width="333.90454557049503" height="333.90454557049503" fill="none" stroke="none" visibility="hidden"></rect></g></svg></g></svg>